<?xml version="1.0" encoding="UTF-8"?>
<svg id="Capa_2" data-name="Capa 2" xmlns="http://www.w3.org/2000/svg" viewBox="0 0 65.6 37.96">
  <defs>
    <style>
      .cls-1 {
        fill: #929191;
      }

      .cls-2 {
        fill: #bcbcbb;
      }
    </style>
  </defs>
  <g id="Capa_1-2" data-name="Capa 1">
    <path class="cls-1" d="m18.22,14.99c-4.39-.92-8.19-1.72-8.19-4.65,0-2.27,2.25-3.8,5.59-3.8,3.96,0,6.38,1.68,7.4,5.13l.15.51,7.31-2.06-.16-.59C28.61,3.3,23.53,0,15.62,0,6.82,0,1.35,4.35,1.35,11.36c0,8.21,7.43,9.85,13.4,11.17,4.26.94,7.94,1.76,7.94,4.56,0,2.36-2.51,4.01-6.1,4.01-4.3,0-7.35-2.27-8.37-6.23l-.13-.52L0,26.4l.15.53c1.94,7.04,7.73,10.91,16.29,10.91,9.43,0,15.29-4.53,15.29-11.82,0-8.19-7.49-9.77-13.51-11.03"/>
    <polygon class="cls-2" points="45.49 .24 26.37 37.96 35.01 37.96 54.13 .24 45.49 .24"/>
    <polygon class="cls-1" points="56.96 .24 37.84 37.96 46.48 37.96 65.6 .24 56.96 .24"/>
  </g>
</svg>